<!DOCTYPE svg PUBLIC "-//W3C//DTD SVG 1.1//EN" "http://www.w3.org/Graphics/SVG/1.1/DTD/svg11.dtd">
<!-- Uploaded to: SVG Repo, www.svgrepo.com, Transformed by: SVG Repo Mixer Tools -->
<svg width="800px" height="800px" viewBox="0 0 512 512" data-name="Layer 1" id="Layer_1" xmlns="http://www.w3.org/2000/svg" fill="#000000">
<g id="SVGRepo_bgCarrier" stroke-width="0"/>
<g id="SVGRepo_tracerCarrier" stroke-linecap="round" stroke-linejoin="round"/>
<g id="SVGRepo_iconCarrier">
<defs>
<style>.cls-1{fill:none;stroke:#083b43\;stroke-linecap:round;stroke-linejoin:round;stroke-width:20px;}.cls-2{fill:#083b43\;}</style>
</defs>
<title/>
<path class="cls-1" d="M254,183.7h0c-72.82-1.22-101.38,22.29-111.25,39-14.72,24.92-27,81.37,7.64,102.23,10.92,6.57,25.37,3.09,37.4-5.82,19-14.09,41.81-22.21,65.49-22.21h5.46c23.68,0,46.47,8.12,65.49,22.21,12,8.91,26.48,12.39,37.4,5.82,34.67-20.86,22.36-77.31,7.64-102.23-9.87-16.72-38.43-40.23-111.25-39h-4Z"/>
<path class="cls-2" d="M201.9,233.93V222.36a2.3,2.3,0,0,0-2.3-2.31H188a2.3,2.3,0,0,0-2.3,2.31v11.57a2.31,2.31,0,0,1-2.31,2.31H171.83a2.3,2.3,0,0,0-2.3,2.3v11.58a2.3,2.3,0,0,0,2.3,2.3h11.58a2.31,2.31,0,0,1,2.31,2.3V266.3a2.3,2.3,0,0,0,2.3,2.3H199.6a2.3,2.3,0,0,0,2.3-2.3V254.72a2.3,2.3,0,0,1,2.3-2.3h11.58a2.3,2.3,0,0,0,2.3-2.3V238.54a2.3,2.3,0,0,0-2.3-2.3H204.2A2.3,2.3,0,0,1,201.9,233.93Z"/>
<circle class="cls-2" cx="328.06" cy="228.14" r="8.09"/>
<circle class="cls-2" cx="328.06" cy="228.14" r="8.09"/>
<circle class="cls-2" cx="328.06" cy="260.51" r="8.09"/>
<circle class="cls-2" cx="344.24" cy="244.33" r="8.09"/>
<circle class="cls-2" cx="344.24" cy="244.33" r="8.09"/>
<circle class="cls-2" cx="311.87" cy="244.33" r="8.09"/>
</g>
</svg>